HIERARCHY
ROOT pelvis
{
  OFFSET 0 100 0
  CHANNELS 6 Xposition Yposition Zposition Zrotation Xrotation Yrotation
  JOINT pelvis_right_femur
  {
    OFFSET -10.78128 -3.44521 -0.5502486
    CHANNELS 3 Zrotation Xrotation Yrotation
    JOINT right_femur_tibia
    {
      OFFSET -0.8047443 -44.0398 -0.1307829
      CHANNELS 3 Zrotation Xrotation Yrotation
      JOINT right_tibia_foot
      {
        OFFSET 3.006224 -47.83518 -5
        CHANNELS 3 Zrotation Xrotation Yrotation
        End Site
        {
          OFFSET 0 -5 15
        }
      }
    }
  }
  JOINT pelvis_left_femur
  {
    OFFSET 10.78128 -3.44521 -0.5502486
    CHANNELS 3 Zrotation Xrotation Yrotation
    JOINT left_femur_tibia
    {
      OFFSET 0.8047443 -44.0398 -0.1307829
      CHANNELS 3 Zrotation Xrotation Yrotation
      JOINT left_tibia_foot
      {
        OFFSET -4.370144 -48.10324 -4.275266
        CHANNELS 3 Zrotation Xrotation Yrotation
        End Site
        {
          OFFSET 0 -5 15
        }
      }
    }
  }
  JOINT pelvis_spine1
  {
    OFFSET 0 6.468898 -3.129235
    CHANNELS 3 Zrotation Xrotation Yrotation
    JOINT spine1
    {
      OFFSET 0 23.15396 4.99043
      CHANNELS 3 Zrotation Xrotation Yrotation
      JOINT spine2
      {
        OFFSET 0 20.79997 -5.064912
        CHANNELS 3 Zrotation Xrotation Yrotation
        JOINT neck
        {
          OFFSET 0 14.38658 9.616178
          CHANNELS 3 Zrotation Xrotation Yrotation
          End Site
          {
            OFFSET 0 20 0
          }
        }
      }
      JOINT right_manubrium
      {
        OFFSET -5.722621 16.35077 3.967754
        CHANNELS 3 Zrotation Xrotation Yrotation
        JOINT right_clavicle
        {
          OFFSET -13.16364 1.694482 -4.693211
          CHANNELS 3 Zrotation Xrotation Yrotation
          JOINT right_humerus
          {
            OFFSET -28.5034 -0.3100689 -2.792744
            CHANNELS 3 Zrotation Xrotation Yrotation
            JOINT right_radius
            {
              OFFSET -25.15693 0.02248979 -1.271978
              CHANNELS 3 Zrotation Xrotation Yrotation
              End Site
              {
                OFFSET -15 0 0
              }
            }
          }
        }
      }
      JOINT left_manubrium
      {
        OFFSET 5.722621 16.35077 3.967754
        CHANNELS 3 Zrotation Xrotation Yrotation
        JOINT left_clavicle
        {
          OFFSET 13.16364 1.694482 -4.693211
          CHANNELS 3 Zrotation Xrotation Yrotation
          JOINT left_humerus
          {
            OFFSET 29.39168 -1.063119 -2.237045
            CHANNELS 3 Zrotation Xrotation Yrotation
            JOINT left_radius
            {
              OFFSET 24.59957 -0.9528479 0.9047498
              CHANNELS 3 Zrotation Xrotation Yrotation
              End Site
              {
                OFFSET 15 -0 -0
              }
            }
          }
        }
      }
    }
  }
}
MOTION
Frames: 15
Frame Time: 0.0416666666667
1796.215 103.0805 2184.337 3.922943 -2.179543 75.46555 5.905439 -19.1817 5.592757 -0 17.98303 -0 -2.947841 -5.419732 -7.254746 -3.049511 15.18016 -9.821492 -0 40.58965 -0 -9.570332 -11.40742 12.572 0.1220329 -0.1911377 2.316991 1.707651 8.530912 -7.478651 2.224847 21.92559 5.937516 2.238935 -19.6375 8.463721 2.560775 -13.39473 9.73895 90.96959 27.3255 -22.46778 -0 0 7.446476 -15.21681 12.99578 6.635906 5.901424 -20.31357 -2.921281 -85.18901 25.7438 8.43052 0 0 -21.8068 3.09995 9.336134 10.39317
1802.674 104.039 2186.51 5.07623 -2.148196 75.09715 5.888728 -13.78875 5.767766 -0 18.92146 -0 -2.778336 -6.556672 -6.894473 -3.128991 11.16217 -9.145702 -0 49.10614 -0 -9.364673 -8.61744 13.32103 0.02844339 -0.09328337 3.071533 1.608586 9.033441 -6.956587 2.174696 22.35274 5.71552 2.193411 -19.15609 8.119955 2.901604 -13.63677 10.09289 90.38985 27.45874 -21.53114 -0 0 7.541551 -15.76115 13.20966 7.052873 5.245516 -19.73723 -2.856904 -85.97727 25.063 9.699875 0 0 -20.39031 3.004578 8.955641 10.14518
1808.849 105.2232 2188.567 6.321646 -1.987079 74.53849 5.60634 -8.290859 5.689786 -0 18.6867 -0 -2.621561 -7.708355 -6.367052 -3.185604 5.579914 -8.462193 -0 55.6087 -0 -9.146977 -7.056946 14.38814 -0.2491135 0.2779153 4.145735 1.311764 9.539832 -6.239521 2.19948 22.82557 5.502807 2.267568 -18.66926 7.76894 3.033117 -14.25947 10.45762 89.54214 27.46835 -20.15965 -0 0 8.360603 -16.58585 13.27899 7.582037 4.848999 -19.32435 -2.822158 -87.14588 24.97326 11.54535 0 0 -19.2261 2.39369 8.816063 10.66555
1814.654 106.2935 2190.485 7.41371 -1.843748 73.85213 5.229431 -3.23155 5.396449 -0 17.22158 -0 -2.547032 -9.01426 -5.707072 -2.939745 -0.9485683 -7.645012 -0 58.25376 -0 -8.93801 -6.695067 15.57505 -0.531679 0.8582768 5.27785 0.8547076 9.92212 -5.418564 2.2641 23.23958 5.326152 2.378927 -18.24605 7.472284 2.808042 -15.24059 10.7701 88.44525 27.16563 -18.29605 -0 0 9.950622 -17.71842 13.15029 8.254061 4.74229 -19.04651 -2.840798 -88.4919 25.17059 13.68615 0 0 -18.24484 1.582898 8.816665 11.56247
1820.157 106.9471 2192.267 8.140243 -1.822699 73.10119 4.881648 1.28389 4.949461 -0 15.06959 -0 -2.554982 -10.68209 -4.951293 -2.206878 -7.622283 -6.599334 -0 56.20799 -0 -8.673385 -7.03521 16.70244 -0.6806637 1.477103 6.205432 0.3384994 10.08169 -4.615318 2.295472 23.51655 5.212944 2.432918 -17.91812 7.262913 2.236155 -16.47921 10.97985 87.13721 26.56187 -15.96532 -0 0 12.17762 -19.11327 12.83587 9.119081 4.829306 -18.76802 -2.891001 -89.78239 25.26406 15.8467 0 0 -17.18807 0.9056042 8.813134 12.3381
1825.528 107.0245 2193.935 8.311909 -1.897009 72.33276 4.595789 5.377875 4.436559 -0 12.93563 -0 -2.548206 -12.66646 -4.075352 -1.030448 -13.79 -5.372523 -0 50.02537 -0 -8.271286 -7.487613 17.64256 -0.6808247 1.924668 6.832264 -0.1215821 10.01033 -3.941198 2.224182 23.58455 5.205136 2.417756 -17.72725 7.133845 1.539632 -17.84068 11.08589 85.62743 25.99113 -13.3377 -0 0 14.796 -20.65935 12.46524 10.20248 4.982197 -18.37756 -2.897072 -90.89751 25.01658 17.96347 0 0 -15.8823 0.5290581 8.710315 12.72447
1830.96 106.5318 2195.509 7.863121 -1.944974 71.58082 4.324773 9.153407 3.955452 -0 11.41282 -0 -2.377701 -14.61521 -3.050975 0.3071285 -19.01736 -4.182478 -0 41.31682 -0 -7.710819 -7.692595 18.34366 -0.6238189 2.04703 7.226311 -0.4532755 9.771077 -3.452345 2.036624 23.41081 5.326866 2.390647 -17.70918 7.062148 1.001469 -19.17504 11.11909 83.92621 25.83266 -10.67353 -0 0 17.50234 -22.20915 12.19319 11.45644 5.112454 -17.83995 -2.779132 -91.84673 24.436 20.09794 0 0 -14.34536 0.4068567 8.48627 12.77765
1836.616 105.5975 2197.013 6.978613 -1.858112 70.8793 3.977887 12.61555 3.59793 -0 10.99411 -0 -1.931151 -16.04974 -1.96241 1.374898 -22.97536 -3.359321 -0 32.13491 -0 -7.063803 -7.619396 18.8546 -0.6331336 1.808195 7.507829 -0.6568896 9.438921 -3.125549 1.804813 23.05746 5.535216 2.397238 -17.84106 7.041152 0.7497571 -20.32028 11.08731 82.17566 26.12117 -8.251466 -0 0 19.96385 -23.59412 12.05812 12.72628 5.180534 -17.16052 -2.515419 -92.68526 23.73655 22.21794 0 0 -12.69398 0.3497358 8.183703 12.75604
1842.601 104.4219 2198.468 6.069188 -1.617263 70.26462 3.462311 15.68073 3.437001 -0 12.14561 -0 -1.211161 -16.53296 -1.038912 1.75137 -25.38352 -3.218008 -0 24.39354 -0 -6.455393 -7.468241 19.30006 -0.7965284 1.288278 7.756788 -0.7945426 9.076625 -2.880331 1.658012 22.67534 5.723965 2.428704 -18.0332 7.087369 0.6881841 -21.12975 10.95393 80.7213 26.47698 -6.345257 -0 0 21.86976 -24.65502 11.95718 13.78099 5.175413 -16.35981 -2.168164 -93.44312 23.20833 24.12891 0 0 -11.03139 0.1538277 7.885802 12.93351
1848.961 103.2456 2199.903 5.566973 -1.292287 69.77181 2.726983 18.15441 3.507725 -0 15.27315 -0 -0.3492793 -15.74808 -0.5504716 1.221654 -26.06517 -3.885586 -0 19.38819 -0 -5.984251 -7.484242 19.78144 -1.13437 0.6351969 7.983879 -0.9465528 8.75291 -2.641796 1.70414 22.4194 5.79179 2.446522 -18.182 7.220265 0.6240736 -21.51928 10.682 79.97587 26.41879 -5.186064 -0 0 23.01031 -25.30318 11.76142 14.42123 5.096041 -15.49596 -1.857063 -94.09685 23.04711 25.58657 0 0 -9.424579 -0.2706721 7.670457 13.44384
1855.685 102.3271 2201.342 5.687664 -0.9876707 69.44175 1.802346 19.6875 3.776636 -0 20.57555 -0 0.4520052 -13.53715 -0.6422579 -0.09239307 -25.03427 -5.185643 -0 17.49799 -0 -5.663094 -7.803078 20.26504 -1.600562 0.008977878 8.141616 -1.161221 8.561603 -2.403122 1.953992 22.35443 5.721289 2.434275 -18.2347 7.437418 0.4651463 -21.49525 10.30366 80.15608 25.76618 -4.870945 -0 0 23.32949 -25.57966 11.45525 14.59781 4.945699 -14.69882 -1.705214 -94.55945 23.23832 26.42996 0 0 -7.960261 -0.8319562 7.56665 14.20651
1862.684 101.8999 2202.787 6.33592 -0.7850462 69.33135 0.8182275 19.80949 4.119836 -0 27.85926 -0 0.999973 -9.961219 -1.240381 -1.790443 -22.52873 -6.702591 -0 18.17509 -0 -5.424574 -8.405526 20.5587 -2.1022 -0.4556701 8.14663 -1.427844 8.607536 -2.242822 2.299606 22.42949 5.60654 2.422509 -18.20999 7.705185 0.3074001 -21.14344 9.942011 81.13715 24.79624 -5.320635 -0 0 22.91403 -25.65279 11.1797 14.44303 4.734957 -14.16499 -1.797419 -94.68736 23.57249 26.61009 0 0 -6.810055 -1.294291 7.548927 14.96091
1869.788 102.1018 2204.213 7.204334 -0.7190607 69.50366 -0.02854025 18.09885 4.358385 -0 36.40317 -0 1.167947 -5.427807 -2.104285 -3.404422 -18.94383 -8.000783 -0 20.20546 -0 -5.183156 -9.181572 20.41924 -2.528239 -0.6694406 7.903978 -1.68051 8.95014 -2.285128 2.563856 22.53722 5.600912 2.460187 -18.16119 7.971056 0.3465595 -20.58823 9.751094 82.55485 24.047 -6.358881 -0 0 21.94042 -25.715 11.14222 14.17962 4.483587 -14.08612 -2.161352 -94.32965 23.79303 26.13061 0 0 -6.223786 -1.414717 7.568397 15.40074
1876.768 102.9041 2205.568 7.972889 -0.7835446 69.99858 -0.5661396 14.43753 4.36187 -0 44.93943 -0 0.9241628 -0.810661 -2.984759 -4.60199 -14.68738 -8.842048 -0 22.1382 -0 -4.901161 -10.04992 19.73441 -2.787734 -0.604777 7.341326 -1.822534 9.527127 -2.627166 2.600618 22.60614 5.808619 2.555475 -18.11949 8.19058 0.6962678 -19.93965 9.80981 84.03794 23.93051 -7.809626 -0 0 20.61638 -25.8174 11.44673 13.96493 4.222547 -14.53406 -2.753343 -93.42341 23.79621 24.99273 0 0 -6.423639 -1.112011 7.594132 15.35198
1883.401 104.0947 2206.802 8.467476 -0.9393763 70.80471 -0.739308 9.187366 4.132114 -0 51.83416 -0 0.3501616 2.689945 -3.774567 -5.282631 -10.05713 -9.276283 -0 22.79851 -0 -4.619543 -11.05526 18.65114 -2.853258 -0.3085801 6.458465 -1.767806 10.123 -3.271474 2.38976 22.65447 6.194872 2.646278 -18.0703 8.350923 1.262097 -19.25412 10.04751 85.37929 24.44255 -9.518639 -0 0 19.12896 -25.76738 11.97026 13.77255 4.00546 -15.38785 -3.448325 -92.07581 23.75256 23.20233 0 0 -7.470257 -0.5582785 7.649321 14.89908
